<svg width="100" height="25" viewBox="0 0 100 25" fill="none" xmlns="http://www.w3.org/2000/svg">
<path d="M33.9665 18.875V10.0343H34.0103L37.4286 18.875H39.5322V4.16797H37.2971V13.0294H37.2533L33.8788 4.16797H31.7314V18.875H33.9665Z" fill="#FD675A"/>
<path d="M45.5455 18.9988C46.0422 18.9988 46.506 18.9059 46.9369 18.72C47.3679 18.5341 47.744 18.2828 48.0654 17.9661C48.3868 17.6493 48.6388 17.2878 48.8214 16.8816C49.004 16.4754 49.0953 16.045 49.0953 15.5906V14.6818H46.8602V15.4047C46.8602 15.6939 46.8164 15.9349 46.7288 16.1277C46.6411 16.3205 46.5315 16.4719 46.4001 16.5821C46.254 16.6923 46.097 16.7714 45.929 16.8196C45.761 16.8678 45.6039 16.8919 45.4579 16.8919C44.9466 16.8919 44.5923 16.7473 44.3951 16.4582C44.1979 16.169 44.0993 15.8109 44.0993 15.3841V7.86529C44.0993 7.36955 44.1906 6.95988 44.3732 6.63627C44.5558 6.31266 44.9247 6.15085 45.4798 6.15085C45.9034 6.15085 46.2394 6.30233 46.4877 6.60528C46.7361 6.90824 46.8602 7.26627 46.8602 7.67939V8.38169H49.0953V7.55546C49.0953 7.04594 49.004 6.5743 48.8214 6.14052C48.6388 5.70675 48.3868 5.3315 48.0654 5.01477C47.408 4.36756 46.5535 4.04395 45.5017 4.04395C44.9612 4.04395 44.4682 4.13001 44.0226 4.30214C43.5771 4.47428 43.1936 4.71182 42.8722 5.01477C42.5508 5.31773 42.3025 5.67576 42.1272 6.08888C41.9519 6.502 41.8643 6.94955 41.8643 7.43152V15.5286C41.8643 16.2034 41.9775 16.7577 42.2039 17.1915C42.4303 17.6252 42.7188 17.9798 43.0694 18.2552C43.42 18.5306 43.8144 18.7234 44.2527 18.8336C44.6909 18.9438 45.1219 18.9988 45.5455 18.9988Z" fill="#FF9F11"/>
<path d="M54.9768 18.9989C55.4735 18.9989 55.941 18.9094 56.3792 18.7304C56.8175 18.5514 57.2046 18.3035 57.5406 17.9868C57.8765 17.6701 58.1358 17.3086 58.3184 16.9024C58.501 16.4961 58.5923 16.052 58.5923 15.57V4.16797H56.3573V15.3635C56.3573 15.8868 56.2258 16.2724 55.9629 16.5202C55.6999 16.7681 55.3713 16.892 54.9768 16.892C54.5824 16.892 54.2537 16.7681 53.9908 16.5202C53.7278 16.2724 53.5964 15.8868 53.5964 15.3635V4.16797H51.3613V15.57C51.3613 16.052 51.4563 16.4961 51.6462 16.9024C51.8361 17.3086 52.099 17.6701 52.435 17.9868C52.771 18.3035 53.1545 18.5514 53.5854 18.7304C54.0164 18.9094 54.4802 18.9989 54.9768 18.9989Z" fill="#31A0FE"/>
<path d="M63.3786 18.8749V12.327H66.1395V18.8749H68.3746V4.16788H66.1395V10.4679H63.3786V4.16788H61.1436V18.8749H63.3786ZM74.5412 18.9988C74.9941 18.9988 75.4433 18.9231 75.8888 18.7716C76.3344 18.6202 76.7397 18.3929 77.1049 18.09C77.4555 17.8008 77.7404 17.4359 77.9595 16.9952C78.1786 16.5546 78.2882 16.0244 78.2882 15.4047V7.63808C78.2882 7.04594 78.1786 6.52266 77.9595 6.06823C77.7404 5.6138 77.4555 5.2351 77.1049 4.93215C76.7397 4.64297 76.3344 4.42264 75.8888 4.27116C75.4433 4.11968 74.9941 4.04395 74.5412 4.04395C74.0884 4.04395 73.6392 4.11968 73.1936 4.27116C72.7481 4.42264 72.35 4.64297 71.9994 4.93215C71.6342 5.2351 71.342 5.6138 71.1229 6.06823C70.9038 6.52266 70.7942 7.04594 70.7942 7.63808V15.4047C70.7942 16.0244 70.9038 16.5546 71.1229 16.9952C71.342 17.4359 71.6342 17.8008 71.9994 18.09C72.35 18.3929 72.7481 18.6202 73.1936 18.7716C73.6392 18.9231 74.0884 18.9988 74.5412 18.9988ZM74.5412 16.8919C74.1322 16.8919 73.7779 16.7714 73.4785 16.5305C73.179 16.2895 73.0293 15.9142 73.0293 15.4047V7.63808C73.0293 7.12857 73.179 6.75332 73.4785 6.51233C73.7779 6.27134 74.1322 6.15085 74.5412 6.15085C74.9502 6.15085 75.3045 6.27134 75.604 6.51233C75.9034 6.75332 76.0532 7.12857 76.0532 7.63808V15.4047C76.0532 15.9142 75.9034 16.2895 75.604 16.5305C75.3045 16.7714 74.9502 16.8919 74.5412 16.8919ZM82.9429 18.8749V9.93089H82.9867L85.1779 16.2516H86.2955L88.5086 9.93089H88.5524V18.8749H90.7875V4.16788H88.6181L85.7696 11.9552H85.7257L82.8552 4.16788H80.7079V18.8749H82.9429ZM99.9999 18.8749V16.768H95.5736V12.4509H99.4302V10.4679H95.5736V6.15085H99.9999V4.16788H93.3386V18.8749H99.9999Z" fill="#395597"/>
<path opacity="0.108551" fill-rule="evenodd" clip-rule="evenodd" d="M14.3082 22.3734V21.6389V19.5328C11.0826 17.6798 9.27169 16.5216 8.87564 16.0582C8.50491 15.6244 6.83918 12.6289 10.4005 13.1464C10.5444 13.1673 13.8047 14.7021 14.3082 14.7021C14.5979 14.7021 14.674 13.7544 14.5364 11.8589L24.2944 7.03076V17.155L21.8001 18.5396L21.5014 14.0043C21.3584 13.2933 21.0898 12.9378 20.6959 12.9378C20.1049 12.9378 18.3867 13.1799 17.9327 14.5444C17.6301 15.4541 17.5871 17.4561 17.8038 20.5506L14.3082 22.3734Z" fill="#FD675A"/>
<path d="M24.2938 6.70898V16.9567L21.4016 18.6313C21.4016 15.7938 21.4016 14.2357 21.4016 13.9568C21.4016 13.5384 20.7118 12.4534 19.3691 12.9857C18.4739 13.3405 17.9254 14.0233 17.7235 15.0341V20.5403L14.709 22.3735" stroke="#FD675A" stroke-width="1.5" stroke-linecap="round" stroke-linejoin="round"/>
<path fill-rule="evenodd" clip-rule="evenodd" d="M4.79762 6.66351L4.79614 17.1062L14.4935 22.3535L14.5173 19.3442L9.67285 16.7799C8.70748 16.1694 8.13056 15.5698 7.94207 14.981C7.65935 14.0978 7.99293 13.075 8.88326 12.7932C9.77359 12.5114 10.45 12.9999 11.1205 13.343C11.5676 13.5716 12.7129 14.1807 14.5564 15.1702L14.5564 11.8924" fill="#FFBB00" fill-opacity="0.141287"/>
<path d="M4.79762 6.66351L4.79614 17.1062L14.4935 22.3535L14.5173 19.3442L9.67285 16.7799C8.70748 16.1694 8.13056 15.5698 7.94207 14.981C7.65935 14.0978 7.99293 13.075 8.88326 12.7932C9.77359 12.5114 10.45 12.9999 11.1205 13.343C11.5676 13.5716 12.7129 14.1807 14.5564 15.1702L14.5564 11.8924" stroke="#FFBB00" stroke-width="1.5" stroke-linecap="round" stroke-linejoin="round"/>
<path fill-rule="evenodd" clip-rule="evenodd" d="M24.2943 6.77544L20.9418 4.96381C18.435 6.29926 16.7952 7.15998 16.0226 7.54599C14.8636 8.125 13.3132 8.23832 12.4458 7.69129C11.5783 7.14427 11.5959 6.11494 12.4458 5.55602C13.0124 5.18341 14.6109 4.31906 17.2414 2.96298L14.5363 1.45166L4.77832 6.65799L14.5363 11.8589" fill="#31A0FE" fill-opacity="0.0967019"/>
<path d="M24.2943 6.77544L20.9418 4.96381C18.435 6.29926 16.7952 7.15998 16.0226 7.54599C14.8636 8.125 13.3132 8.23832 12.4458 7.69129C11.5783 7.14427 11.5959 6.11494 12.4458 5.55602C13.0124 5.18341 14.6109 4.31906 17.2414 2.96298L14.5363 1.45166L4.77832 6.65799L14.5363 11.8589" stroke="#31A0FE" stroke-width="1.5" stroke-linejoin="round"/>
<path d="M14.5938 11.859L24.294 6.70898" stroke="#FD675A" stroke-width="1.5" stroke-linecap="round" stroke-linejoin="round"/>
<path d="M14.5938 11.7515V14.541" stroke="#FFBB00" stroke-width="1.5" stroke-linecap="round"/>
</svg>
